# xmcd
#
# Track frame offsets: 
#        150
#        12707
#        24411
#        37040
#        54305
#        72577
#        93648
#
# Disc length: 1472 seconds
#
# Revision: 0
# Processed by: cddbd v1.5.2PL0 Copyright (c) Steve Scherf et al.
# Submitted via: ExactAudioCopy v1.3
#
DISCID=5e05be07
DTITLE=Heathcote Hill - Fight Another Day
DYEAR=2019
DGENRE=Folk/Rock
TTITLE0=Promised Land
TTITLE1=Faded Valentine
TTITLE2=Gonna Be All Right
TTITLE3=Make Up Your Mind
TTITLE4=Fight Another Day
TTITLE5=Telmiwachigunadu
TTITLE6=Til These Troubles (acoustic)
EXTD=
EXTT0=
EXTT1=
EXTT2=
EXTT3=
EXTT4=
EXTT5=
EXTT6=
PLAYORDER=
